<svg xmlns="http://www.w3.org/2000/svg" width="158.12" height="35" viewBox="0 0 158.12 35"><rect class="svg__rect" x="0" y="0" width="75.86" height="35" fill="#31C4F3"/><rect class="svg__rect" x="73.86" y="0" width="84.26" height="35" fill="#AD38D5"/><path class="svg__text" d="M15.70 22L14.22 22L14.22 13.47L17.22 13.47Q18.69 13.47 19.50 14.13Q20.30 14.79 20.30 16.05L20.30 16.05Q20.30 16.90 19.89 17.48Q19.47 18.06 18.73 18.37L18.73 18.37L20.65 21.92L20.65 22L19.06 22L17.35 18.71L15.70 18.71L15.70 22ZM15.70 14.66L15.70 17.52L17.22 17.52Q17.97 17.52 18.39 17.15Q18.82 16.77 18.82 16.11L18.82 16.11Q18.82 15.43 18.43 15.05Q18.04 14.68 17.26 14.66L17.26 14.66L15.70 14.66ZM30.27 22L24.69 22L24.69 13.47L30.23 13.47L30.23 14.66L26.18 14.66L26.18 17.02L29.68 17.02L29.68 18.19L26.18 18.19L26.18 20.82L30.27 20.82L30.27 22ZM35.25 22L33.71 22L36.93 13.47L38.26 13.47L41.49 22L39.94 22L39.24 20.01L35.94 20.01L35.25 22ZM37.59 15.28L36.35 18.82L38.83 18.82L37.59 15.28ZM45.17 18.19L45.17 18.19L45.17 17.39Q45.17 16.19 45.60 15.27Q46.03 14.35 46.83 13.85Q47.63 13.35 48.68 13.35L48.68 13.35Q50.09 13.35 50.95 14.12Q51.81 14.89 51.95 16.29L51.95 16.29L50.48 16.29Q50.37 15.37 49.94 14.96Q49.51 14.55 48.68 14.55L48.68 14.55Q47.71 14.55 47.19 15.26Q46.67 15.96 46.66 17.33L46.66 17.33L46.66 18.09Q46.66 19.47 47.16 20.20Q47.65 20.92 48.61 20.92L48.61 20.92Q49.48 20.92 49.92 20.53Q50.36 20.14 50.48 19.22L50.48 19.22L51.95 19.22Q51.82 20.59 50.94 21.35Q50.06 22.12 48.61 22.12L48.61 22.12Q47.59 22.12 46.81 21.63Q46.03 21.15 45.61 20.26Q45.19 19.37 45.17 18.19ZM57.95 14.66L55.31 14.66L55.31 13.47L62.08 13.47L62.08 14.66L59.42 14.66L59.42 22L57.95 22L57.95 14.66Z" fill="#FFFFFF"/><path class="svg__text" d="M90.43 22L88.05 22L88.05 13.60L91.89 13.60Q93.03 13.60 93.87 13.98Q94.71 14.35 95.17 15.06Q95.62 15.76 95.62 16.71L95.62 16.71Q95.62 17.62 95.20 18.30Q94.77 18.98 93.98 19.36L93.98 19.36L95.79 22L93.25 22L91.72 19.77L90.43 19.77L90.43 22ZM90.43 15.47L90.43 17.93L91.75 17.93Q92.48 17.93 92.85 17.61Q93.22 17.29 93.22 16.71L93.22 16.71Q93.22 16.12 92.85 15.79Q92.48 15.47 91.75 15.47L91.75 15.47L90.43 15.47ZM107.16 22L100.41 22L100.41 13.60L107.00 13.60L107.00 15.44L102.77 15.44L102.77 16.85L106.50 16.85L106.50 18.63L102.77 18.63L102.77 20.17L107.16 20.17L107.16 22ZM115.93 22L111.96 22L111.96 13.60L115.93 13.60Q117.32 13.60 118.38 14.12Q119.45 14.63 120.04 15.58Q120.63 16.53 120.63 17.80L120.63 17.80Q120.63 19.07 120.04 20.02Q119.45 20.97 118.38 21.48Q117.32 22 115.93 22L115.93 22ZM114.34 15.50L114.34 20.10L115.84 20.10Q116.92 20.10 117.57 19.49Q118.22 18.88 118.22 17.80L118.22 17.80Q118.22 16.72 117.57 16.11Q116.92 15.50 115.84 15.50L115.84 15.50L114.34 15.50ZM125.28 18.26L125.28 18.26L125.28 13.60L127.66 13.60L127.66 18.19Q127.66 20.20 129.26 20.20L129.26 20.20Q130.84 20.20 130.84 18.19L130.84 18.19L130.84 13.60L133.18 13.60L133.18 18.26Q133.18 20.13 132.14 21.15Q131.10 22.17 129.23 22.17L129.23 22.17Q127.36 22.17 126.32 21.15Q125.28 20.13 125.28 18.26ZM140.12 22L137.41 22L140.47 17.75L137.54 13.60L140.21 13.60L141.90 16.02L143.55 13.60L146.12 13.60L143.19 17.66L146.31 22L143.58 22L141.84 19.40L140.12 22Z" fill="#FFFFFF" x="86.86"/></svg>